<svg width="12" height="20" viewBox="0 0 12 20" fill="none" xmlns="http://www.w3.org/2000/svg">
<path d="M11.7083 18.4473C11.8012 18.5318 11.8749 18.632 11.9252 18.7424C11.9755 18.8527 12.0013 18.971 12.0013 19.0904C12.0013 19.2099 11.9755 19.3282 11.9252 19.4385C11.8749 19.5489 11.8012 19.6491 11.7083 19.7336C11.6154 19.8181 11.5051 19.8851 11.3837 19.9308C11.2623 19.9765 11.1322 20 11.0008 20C10.8694 20 10.7393 19.9765 10.6179 19.9308C10.4965 19.8851 10.3862 19.8181 10.2933 19.7336L0.293286 10.6431C0.20031 10.5587 0.126551 10.4585 0.0762272 10.3481C0.0259029 10.2378 0 10.1195 0 10C0 9.88054 0.0259029 9.76225 0.0762272 9.65189C0.126551 9.54153 0.20031 9.44127 0.293286 9.35685L10.2933 0.266401C10.4809 0.0958273 10.7354 -4.75517e-09 11.0008 0C11.2662 4.75517e-09 11.5206 0.0958273 11.7083 0.266401C11.8959 0.436975 12.0013 0.668323 12.0013 0.90955C12.0013 1.15078 11.8959 1.38213 11.7083 1.5527L2.41454 10L11.7083 18.4473Z" fill="#F2F2F2"/>
</svg>
