<svg width="15" height="16" viewBox="0 0 15 16" fill="none" xmlns="http://www.w3.org/2000/svg">
<path d="M14.7802 14.219C14.8499 14.2887 14.9052 14.3714 14.9429 14.4625C14.9806 14.5535 15 14.6511 15 14.7496C15 14.8482 14.9806 14.9457 14.9429 15.0368C14.9052 15.1278 14.8499 15.2105 14.7802 15.2802C14.7105 15.3499 14.6278 15.4052 14.5368 15.4429C14.4457 15.4806 14.3482 15.5 14.2496 15.5C14.1511 15.5 14.0535 15.4806 13.9625 15.4429C13.8714 15.4052 13.7887 15.3499 13.719 15.2802L7.5 9.06025L1.28097 15.2802C1.14025 15.4209 0.949387 15.5 0.750375 15.5C0.551363 15.5 0.360502 15.4209 0.21978 15.2802C0.0790571 15.1395 3.923e-09 14.9486 0 14.7496C-3.923e-09 14.5506 0.0790571 14.3598 0.21978 14.219L6.43975 8L0.21978 1.78097C0.0790571 1.64025 0 1.44939 0 1.25038C0 1.05136 0.0790571 0.860502 0.21978 0.71978C0.360502 0.579057 0.551363 0.5 0.750375 0.5C0.949387 0.5 1.14025 0.579057 1.28097 0.71978L7.5 6.93975L13.719 0.71978C13.8598 0.579057 14.0506 0.5 14.2496 0.5C14.4486 0.5 14.6395 0.579057 14.7802 0.71978C14.9209 0.860502 15 1.05136 15 1.25038C15 1.44939 14.9209 1.64025 14.7802 1.78097L8.56025 8L14.7802 14.219Z" fill="#707070"/>
</svg>
