<svg width="18" height="13" viewBox="0 0 18 13" fill="none" xmlns="http://www.w3.org/2000/svg">
<path d="M17.9483 6.632C17.922 6.57275 17.2868 5.1635 15.8745 3.75125C13.9928 1.8695 11.616 0.875 9 0.875C6.384 0.875 4.00725 1.8695 2.12549 3.75125C0.713243 5.1635 0.0749929 6.575 0.0517429 6.632C0.0176277 6.70873 0 6.79177 0 6.87575C0 6.95973 0.0176277 7.04277 0.0517429 7.1195C0.0779929 7.17875 0.713243 8.58725 2.12549 9.9995C4.00725 11.8805 6.384 12.875 9 12.875C11.616 12.875 13.9928 11.8805 15.8745 9.9995C17.2868 8.58725 17.922 7.17875 17.9483 7.1195C17.9824 7.04277 18 6.95973 18 6.87575C18 6.79177 17.9824 6.70873 17.9483 6.632ZM9 11.675C6.6915 11.675 4.67475 10.8358 3.00524 9.18125C2.32023 8.50002 1.73743 7.72322 1.27499 6.875C1.73731 6.0267 2.32012 5.24988 3.00524 4.56875C4.67475 2.91425 6.6915 2.075 9 2.075C11.3085 2.075 13.3253 2.91425 14.9948 4.56875C15.6811 5.24972 16.2652 6.02654 16.7288 6.875C16.188 7.8845 13.8323 11.675 9 11.675ZM9 3.275C8.28799 3.275 7.59196 3.48614 6.99995 3.88171C6.40793 4.27728 5.94651 4.83953 5.67403 5.49734C5.40156 6.15515 5.33026 6.87899 5.46917 7.57733C5.60808 8.27566 5.95094 8.91712 6.45441 9.42058C6.95788 9.92405 7.59934 10.2669 8.29767 10.4058C8.99601 10.5447 9.71985 10.4734 10.3777 10.201C11.0355 9.92849 11.5977 9.46707 11.9933 8.87505C12.3889 8.28304 12.6 7.58701 12.6 6.875C12.599 5.92053 12.2194 5.00543 11.5445 4.33051C10.8696 3.6556 9.95448 3.27599 9 3.275ZM9 9.275C8.52532 9.275 8.06131 9.13424 7.66663 8.87053C7.27195 8.60681 6.96434 8.23198 6.78269 7.79344C6.60104 7.3549 6.55351 6.87234 6.64611 6.40678C6.73872 5.94123 6.9673 5.51359 7.30294 5.17794C7.63859 4.8423 8.06623 4.61372 8.53178 4.52112C8.99734 4.42851 9.4799 4.47604 9.91844 4.65769C10.357 4.83934 10.7318 5.14695 10.9955 5.54163C11.2592 5.93631 11.4 6.40032 11.4 6.875C11.4 7.51152 11.1471 8.12197 10.6971 8.57206C10.247 9.02214 9.63652 9.275 9 9.275Z" fill="#707070"/>
</svg>
