<svg width="20" height="20" viewBox="0 0 20 20" fill="none" xmlns="http://www.w3.org/2000/svg">
<path d="M8.3326 19.1667C8.3326 19.3877 8.2448 19.5996 8.08852 19.7559C7.93224 19.9122 7.72028 20 7.49927 20H1.66593C1.22391 20 0.799983 19.8244 0.487423 19.5118C0.174862 19.1993 -0.000732422 18.7754 -0.000732422 18.3333V1.66667C-0.000732422 1.22464 0.174862 0.800716 0.487423 0.488155C0.799983 0.175595 1.22391 0 1.66593 0H7.49927C7.72028 0 7.93224 0.0877975 8.08852 0.244078C8.2448 0.400358 8.3326 0.61232 8.3326 0.833333C8.3326 1.05435 8.2448 1.26631 8.08852 1.42259C7.93224 1.57887 7.72028 1.66667 7.49927 1.66667H1.66593V18.3333H7.49927C7.72028 18.3333 7.93224 18.4211 8.08852 18.5774C8.2448 18.7337 8.3326 18.9457 8.3326 19.1667ZM19.7555 9.41042L15.5889 5.24375C15.4325 5.08738 15.2204 4.99954 14.9993 4.99954C14.7781 4.99954 14.566 5.08738 14.4097 5.24375C14.2533 5.40012 14.1655 5.6122 14.1655 5.83333C14.1655 6.05447 14.2533 6.26655 14.4097 6.42292L17.1545 9.16667H7.49927C7.27825 9.16667 7.06629 9.25446 6.91001 9.41074C6.75373 9.56702 6.66593 9.77899 6.66593 10C6.66593 10.221 6.75373 10.433 6.91001 10.5893C7.06629 10.7455 7.27825 10.8333 7.49927 10.8333H17.1545L14.4097 13.5771C14.2533 13.7334 14.1655 13.9455 14.1655 14.1667C14.1655 14.3878 14.2533 14.5999 14.4097 14.7563C14.566 14.9126 14.7781 15.0005 14.9993 15.0005C15.2204 15.0005 15.4325 14.9126 15.5889 14.7563L19.7555 10.5896C19.833 10.5122 19.8945 10.4203 19.9364 10.3191C19.9783 10.218 19.9999 10.1095 19.9999 10C19.9999 9.89049 19.9783 9.78205 19.9364 9.68088C19.8945 9.57972 19.833 9.48781 19.7555 9.41042Z" fill="#F2F2F2"/>
</svg>
